<svg width="65" height="64" viewBox="0 0 65 64" fill="none" xmlns="http://www.w3.org/2000/svg">
<mask id="path-1-inside-1_1368_1521" fill="white">
<path fill-rule="evenodd" clip-rule="evenodd" d="M3.83363 32.0002C3.83363 16.168 16.6681 3.3335 32.5002 3.3335C48.3324 3.3335 61.1668 16.168 61.1668 32.0002V45.3076C61.1671 45.4986 61.1671 45.6948 61.1671 45.8967C61.1671 45.9994 61.1668 46.1036 61.1668 46.2095V46.7042C61.1668 46.8116 61.1671 46.9178 61.1671 47.0223C61.1676 49.4594 61.1682 51.0932 60.7634 52.5255C59.9719 55.3263 58.0695 57.6751 55.4943 58.9562C54.1751 59.6124 52.5978 59.8722 50.3178 60.2479C50.2122 60.2652 50.1047 60.2828 49.9959 60.301L49.9383 60.3103C49.1276 60.4444 48.4311 60.5594 47.8524 60.6188C47.2492 60.6807 46.6279 60.7004 45.9906 60.5692C43.8988 60.1383 42.2252 58.61 41.5234 56.6052C41.3114 56.0004 41.2354 55.3847 41.2007 54.7642C41.1668 54.165 41.1668 53.4346 41.1668 52.5708V40.4991C41.1668 40.4079 41.1668 40.3175 41.1668 40.2284C41.1655 38.9567 41.1644 37.9002 41.4356 36.9975C42.0562 34.9327 43.6962 33.3122 45.8044 32.8058C46.725 32.5847 47.7727 32.6724 48.9679 32.773C49.0578 32.7804 49.1482 32.7879 49.2396 32.7956C49.3482 32.8044 49.4554 32.8132 49.5607 32.822C51.8007 33.006 53.3492 33.1332 54.6636 33.6418C55.5727 33.9935 56.413 34.4738 57.1668 35.0602V32.0002C57.1668 18.3771 46.1234 7.3335 32.5002 7.3335C18.8773 7.3335 7.83363 18.3771 7.83363 32.0002V35.0602C8.58755 34.4738 9.42795 33.9935 10.337 33.6418C11.6513 33.1332 13.1998 33.006 15.4398 32.822C15.5453 32.8132 15.6523 32.8044 15.761 32.7956C15.8523 32.7879 15.9429 32.7804 16.0326 32.773C17.2279 32.6724 18.2756 32.5847 19.1962 32.8058C21.3044 33.3122 22.9443 34.9327 23.5649 36.9975C23.8362 37.9002 23.8351 38.9567 23.8338 40.2284C23.8337 40.3175 23.8336 40.4079 23.8336 40.4991V52.5706C23.8336 53.4346 23.8337 54.165 23.8 54.7642C23.7651 55.3847 23.6891 56.0004 23.4773 56.6052C22.7753 58.61 21.1019 60.1383 19.01 60.5692C18.3728 60.7004 17.7513 60.6807 17.1482 60.6188C16.5695 60.5594 15.8731 60.4444 15.0623 60.3103L15.0045 60.301C14.8957 60.2828 14.7885 60.2652 14.6827 60.2479C12.4027 59.8722 10.8254 59.6124 9.50632 58.9562C6.93101 57.6751 5.02869 55.3263 4.23712 52.5255C3.88901 51.2938 3.84064 49.913 3.83437 48.0002L3.83363 47.6204C3.83344 47.4263 3.83349 47.2271 3.83355 47.0223C3.83357 46.9178 3.83363 46.8116 3.83363 46.7042V46.2095C3.83363 46.1039 3.83357 45.9994 3.83355 45.8967C3.83349 45.6954 3.83344 45.4996 3.83363 45.3092V32.0002ZM7.83363 46.7042C7.83363 49.578 7.85227 50.6095 8.08635 51.4378C8.58275 53.194 9.76021 54.6148 11.288 55.3748C11.9985 55.7284 12.9274 55.9036 15.6562 56.3543C16.5408 56.5004 17.1151 56.5943 17.5568 56.6396C17.9877 56.6839 18.1442 56.6636 18.2031 56.6514C18.8541 56.5172 19.4426 56.0242 19.7021 55.2834C19.7342 55.1916 19.7802 55.0036 19.8063 54.5396C19.8329 54.0663 19.8336 53.4492 19.8336 52.5159V40.4991C19.8336 38.8079 19.812 38.4079 19.7342 38.149C19.5034 37.3812 18.9206 36.8532 18.2619 36.6951C18.0551 36.6455 17.7215 36.6474 16.0901 36.782C13.4023 37.0039 12.4839 37.1002 11.7801 37.3724C10.0011 38.0604 8.60245 39.6154 8.06595 41.6004C7.85091 42.3962 7.83363 43.406 7.83363 46.2095V46.7042ZM32.5002 15.3335C33.605 15.3335 34.5002 16.2289 34.5002 17.3335V30.6668C34.5002 31.7714 33.605 32.6668 32.5002 32.6668C31.3956 32.6668 30.5002 31.7714 30.5002 30.6668V17.3335C30.5002 16.2289 31.3956 15.3335 32.5002 15.3335ZM24.5003 19.3335C25.6049 19.3335 26.5003 20.2289 26.5003 21.3335V26.6668C26.5003 27.7714 25.6049 28.6668 24.5003 28.6668C23.3957 28.6668 22.5003 27.7714 22.5003 26.6668V21.3335C22.5003 20.2289 23.3957 19.3335 24.5003 19.3335ZM40.5002 19.3335C41.605 19.3335 42.5002 20.2289 42.5002 21.3335V26.6668C42.5002 27.7714 41.605 28.6668 40.5002 28.6668C39.3956 28.6668 38.5002 27.7714 38.5002 26.6668V21.3335C38.5002 20.2289 39.3956 19.3335 40.5002 19.3335ZM48.9106 36.782C47.2791 36.6474 46.9455 36.6455 46.7386 36.6951C46.0799 36.8532 45.4972 37.3812 45.2663 38.149C45.1887 38.4079 45.1668 38.8079 45.1668 40.4991V52.5159C45.1668 53.4492 45.1676 54.0663 45.1943 54.5396C45.2204 55.0036 45.2663 55.1916 45.2986 55.2834C45.558 56.0242 46.1466 56.5172 46.7975 56.6514C46.8564 56.6636 47.013 56.6839 47.4439 56.6396C47.8855 56.5943 48.4596 56.5004 49.3444 56.3543C52.0732 55.9036 53.002 55.7284 53.7127 55.3748C55.2404 54.6148 56.4178 53.194 56.9143 51.4378C57.1484 50.6095 57.1668 49.578 57.1668 46.7042V46.2095C57.1668 43.406 57.1498 42.3962 56.9346 41.6004C56.398 39.6154 54.9994 38.0604 53.2204 37.3724C52.5167 37.1002 51.5983 37.0039 48.9106 36.782Z"/>
</mask>
<path fill-rule="evenodd" clip-rule="evenodd" d="M3.83363 32.0002C3.83363 16.168 16.6681 3.3335 32.5002 3.3335C48.3324 3.3335 61.1668 16.168 61.1668 32.0002V45.3076C61.1671 45.4986 61.1671 45.6948 61.1671 45.8967C61.1671 45.9994 61.1668 46.1036 61.1668 46.2095V46.7042C61.1668 46.8116 61.1671 46.9178 61.1671 47.0223C61.1676 49.4594 61.1682 51.0932 60.7634 52.5255C59.9719 55.3263 58.0695 57.6751 55.4943 58.9562C54.1751 59.6124 52.5978 59.8722 50.3178 60.2479C50.2122 60.2652 50.1047 60.2828 49.9959 60.301L49.9383 60.3103C49.1276 60.4444 48.4311 60.5594 47.8524 60.6188C47.2492 60.6807 46.6279 60.7004 45.9906 60.5692C43.8988 60.1383 42.2252 58.61 41.5234 56.6052C41.3114 56.0004 41.2354 55.3847 41.2007 54.7642C41.1668 54.165 41.1668 53.4346 41.1668 52.5708V40.4991C41.1668 40.4079 41.1668 40.3175 41.1668 40.2284C41.1655 38.9567 41.1644 37.9002 41.4356 36.9975C42.0562 34.9327 43.6962 33.3122 45.8044 32.8058C46.725 32.5847 47.7727 32.6724 48.9679 32.773C49.0578 32.7804 49.1482 32.7879 49.2396 32.7956C49.3482 32.8044 49.4554 32.8132 49.5607 32.822C51.8007 33.006 53.3492 33.1332 54.6636 33.6418C55.5727 33.9935 56.413 34.4738 57.1668 35.0602V32.0002C57.1668 18.3771 46.1234 7.3335 32.5002 7.3335C18.8773 7.3335 7.83363 18.3771 7.83363 32.0002V35.0602C8.58755 34.4738 9.42795 33.9935 10.337 33.6418C11.6513 33.1332 13.1998 33.006 15.4398 32.822C15.5453 32.8132 15.6523 32.8044 15.761 32.7956C15.8523 32.7879 15.9429 32.7804 16.0326 32.773C17.2279 32.6724 18.2756 32.5847 19.1962 32.8058C21.3044 33.3122 22.9443 34.9327 23.5649 36.9975C23.8362 37.9002 23.8351 38.9567 23.8338 40.2284C23.8337 40.3175 23.8336 40.4079 23.8336 40.4991V52.5706C23.8336 53.4346 23.8337 54.165 23.8 54.7642C23.7651 55.3847 23.6891 56.0004 23.4773 56.6052C22.7753 58.61 21.1019 60.1383 19.01 60.5692C18.3728 60.7004 17.7513 60.6807 17.1482 60.6188C16.5695 60.5594 15.8731 60.4444 15.0623 60.3103L15.0045 60.301C14.8957 60.2828 14.7885 60.2652 14.6827 60.2479C12.4027 59.8722 10.8254 59.6124 9.50632 58.9562C6.93101 57.6751 5.02869 55.3263 4.23712 52.5255C3.88901 51.2938 3.84064 49.913 3.83437 48.0002L3.83363 47.6204C3.83344 47.4263 3.83349 47.2271 3.83355 47.0223C3.83357 46.9178 3.83363 46.8116 3.83363 46.7042V46.2095C3.83363 46.1039 3.83357 45.9994 3.83355 45.8967C3.83349 45.6954 3.83344 45.4996 3.83363 45.3092V32.0002ZM7.83363 46.7042C7.83363 49.578 7.85227 50.6095 8.08635 51.4378C8.58275 53.194 9.76021 54.6148 11.288 55.3748C11.9985 55.7284 12.9274 55.9036 15.6562 56.3543C16.5408 56.5004 17.1151 56.5943 17.5568 56.6396C17.9877 56.6839 18.1442 56.6636 18.2031 56.6514C18.8541 56.5172 19.4426 56.0242 19.7021 55.2834C19.7342 55.1916 19.7802 55.0036 19.8063 54.5396C19.8329 54.0663 19.8336 53.4492 19.8336 52.5159V40.4991C19.8336 38.8079 19.812 38.4079 19.7342 38.149C19.5034 37.3812 18.9206 36.8532 18.2619 36.6951C18.0551 36.6455 17.7215 36.6474 16.0901 36.782C13.4023 37.0039 12.4839 37.1002 11.7801 37.3724C10.0011 38.0604 8.60245 39.6154 8.06595 41.6004C7.85091 42.3962 7.83363 43.406 7.83363 46.2095V46.7042ZM32.5002 15.3335C33.605 15.3335 34.5002 16.2289 34.5002 17.3335V30.6668C34.5002 31.7714 33.605 32.6668 32.5002 32.6668C31.3956 32.6668 30.5002 31.7714 30.5002 30.6668V17.3335C30.5002 16.2289 31.3956 15.3335 32.5002 15.3335ZM24.5003 19.3335C25.6049 19.3335 26.5003 20.2289 26.5003 21.3335V26.6668C26.5003 27.7714 25.6049 28.6668 24.5003 28.6668C23.3957 28.6668 22.5003 27.7714 22.5003 26.6668V21.3335C22.5003 20.2289 23.3957 19.3335 24.5003 19.3335ZM40.5002 19.3335C41.605 19.3335 42.5002 20.2289 42.5002 21.3335V26.6668C42.5002 27.7714 41.605 28.6668 40.5002 28.6668C39.3956 28.6668 38.5002 27.7714 38.5002 26.6668V21.3335C38.5002 20.2289 39.3956 19.3335 40.5002 19.3335ZM48.9106 36.782C47.2791 36.6474 46.9455 36.6455 46.7386 36.6951C46.0799 36.8532 45.4972 37.3812 45.2663 38.149C45.1887 38.4079 45.1668 38.8079 45.1668 40.4991V52.5159C45.1668 53.4492 45.1676 54.0663 45.1943 54.5396C45.2204 55.0036 45.2663 55.1916 45.2986 55.2834C45.558 56.0242 46.1466 56.5172 46.7975 56.6514C46.8564 56.6636 47.013 56.6839 47.4439 56.6396C47.8855 56.5943 48.4596 56.5004 49.3444 56.3543C52.0732 55.9036 53.002 55.7284 53.7127 55.3748C55.2404 54.6148 56.4178 53.194 56.9143 51.4378C57.1484 50.6095 57.1668 49.578 57.1668 46.7042V46.2095C57.1668 43.406 57.1498 42.3962 56.9346 41.6004C56.398 39.6154 54.9994 38.0604 53.2204 37.3724C52.5167 37.1002 51.5983 37.0039 48.9106 36.782Z" fill="white" stroke="white" stroke-width="2" mask="url(#path-1-inside-1_1368_1521)"/>
</svg>
